<svg width="84" height="84" viewBox="0 0 84 84" fill="none" xmlns="http://www.w3.org/2000/svg">
<g filter="url(#filter0_d_8_33)">
<circle cx="42" cy="42" r="30" fill="#DB4437"/>
</g>
<path d="M53.7391 41.9561C53.7391 48.8401 48.9477 53.7391 41.8717 53.7391C35.0875 53.7391 29.6087 48.3487 29.6087 41.6739C29.6087 34.9991 35.0875 29.6087 41.8717 29.6087C45.1748 29.6087 47.9538 30.8006 50.0948 32.7661L46.7571 35.9235C42.3909 31.7785 34.2716 34.8921 34.2716 41.6739C34.2716 45.8822 37.6884 49.2925 41.8717 49.2925C46.7275 49.2925 48.5471 45.8676 48.8339 44.0918H41.8717V39.942H53.5463C53.66 40.5598 53.7391 41.1534 53.7391 41.9561Z" fill="white"/>
<defs>
<filter id="filter0_d_8_33" x="0" y="0" width="84" height="84" filterUnits="userSpaceOnUse" color-interpolation-filters="sRGB">
<feFlood flood-opacity="0" result="BackgroundImageFix"/>
<feColorMatrix in="SourceAlpha" type="matrix" values="0 0 0 0 0 0 0 0 0 0 0 0 0 0 0 0 0 0 127 0" result="hardAlpha"/>
<feMorphology radius="8" operator="erode" in="SourceAlpha" result="effect1_dropShadow_8_33"/>
<feOffset/>
<feGaussianBlur stdDeviation="10"/>
<feComposite in2="hardAlpha" operator="out"/>
<feColorMatrix type="matrix" values="0 0 0 0 0 0 0 0 0 0 0 0 0 0 0 0 0 0 0.25 0"/>
<feBlend mode="normal" in2="BackgroundImageFix" result="effect1_dropShadow_8_33"/>
<feBlend mode="normal" in="SourceGraphic" in2="effect1_dropShadow_8_33" result="shape"/>
</filter>
</defs>
</svg>
